<svg xmlns="http://www.w3.org/2000/svg" xmlns:xlink="http://www.w3.org/1999/xlink" viewBox="0 0 219.85 23.71"><defs><style>.cls-1{fill:url(#linear-gradient);}</style><linearGradient id="linear-gradient" x1="27.63" y1="22.68" x2="213.7" y2="-1.32" gradientUnits="userSpaceOnUse"><stop offset="0" stop-color="#1026f9"/><stop offset="1" stop-color="#1026f9"/></linearGradient></defs><g id="Layer_2" data-name="Layer 2"><g id="Layer_1-2" data-name="Layer 1"><path class="cls-1" d="M20.88,5.33l-3.3,3.09A7.07,7.07,0,0,0,15,5.74a6.32,6.32,0,0,0-7.9,1.17,6.73,6.73,0,0,0-2,4.85,7,7,0,0,0,2,5,6.46,6.46,0,0,0,4.81,2.06,6.09,6.09,0,0,0,2.94-.77,5.47,5.47,0,0,0,2.28-2.9H11.67v-4.5H22.32v3a9.66,9.66,0,0,1-1.58,4.94,9.5,9.5,0,0,1-4.16,3.87,12.07,12.07,0,0,1-5.22,1.22,10.68,10.68,0,0,1-8.07-3.46A12,12,0,0,1,0,11.69,11.35,11.35,0,0,1,3.38,3.43,11,11,0,0,1,11.53,0,10.37,10.37,0,0,1,20.88,5.33Zm5.26-5h4.94v18.1h6.8v5H26.14Zm41.5,0h6.72q4.22,0,5.76,1.75a6,6,0,0,1,1.55,4.11,5.22,5.22,0,0,1-.56,2.52,7.51,7.51,0,0,1-1.82,2.08,6.18,6.18,0,0,1,3.39,2.44,6.45,6.45,0,0,1,1,3.44,6,6,0,0,1-2.18,5,9.45,9.45,0,0,1-6.12,1.78H67.64Zm5,3.86V9.25h1.13a3,3,0,0,0,2.12-.81,2.6,2.6,0,0,0,.86-2,2,2,0,0,0-.84-1.61,3.24,3.24,0,0,0-2.1-.67Zm0,9v6.36H74.4c2.72,0,4.09-1,4.09-3a3.14,3.14,0,0,0-1-2.49,4.19,4.19,0,0,0-2.85-.87ZM94.06.32h3.85l9.4,23.08h-5l-1.85-4.54H91.6L89.79,23.4h-5ZM96,7.88l-2.72,6.8h5.49ZM110.92.32h4.94v18.1h6.8v5H110.92ZM151,.32h4.87V23.4H151L140.48,8.46V23.4h-5V.32h4.92L151,15.15Zm9.55,0h13V4.89h-8V9.54h8V14h-8v4.79h8V23.4h-13ZM176,.32h4.43l3.72,15.73L188,.32h3.17L195,16.12,198.81.32h4.43L197.65,23.4H193L189.59,9.25,186.2,23.4h-4.66Zm43.22,2.09L216.14,5.8a8.48,8.48,0,0,0-3.52-1.44A1.92,1.92,0,0,0,211.2,5a2.08,2.08,0,0,0-.6,1.49c0,1.13,1,2.12,3.1,3a21.83,21.83,0,0,1,3.42,1.75,6.24,6.24,0,0,1,1.95,2.17,6.06,6.06,0,0,1,.78,3,6.81,6.81,0,0,1-2.4,5.17,8.13,8.13,0,0,1-5.67,2.19q-3.59,0-7.08-3.37L208,16.52c1.46,1.52,2.83,2.27,4.11,2.27a2.43,2.43,0,0,0,1.72-.8,2.34,2.34,0,0,0,.83-1.67c0-1.2-1.27-2.27-3.82-3.19a12.73,12.73,0,0,1-3.09-1.48,5.4,5.4,0,0,1-1.54-2,6.38,6.38,0,0,1-.62-2.71,6.6,6.6,0,0,1,2-5A7.26,7.26,0,0,1,212.8,0,9.07,9.07,0,0,1,219.23,2.41ZM59.73,7.71a1.22,1.22,0,0,1-.1-1.14,1.17,1.17,0,0,1,.9-.69l1.14-.16h0A11.49,11.49,0,0,1,63.19,9.2a10.81,10.81,0,0,1,.33,2.71,9.26,9.26,0,0,1,0,1.29l-2.78,1.7h0a1.11,1.11,0,0,1-1.6-1.47l.72-1.52a3.62,3.62,0,0,0,.67-2.14,3.54,3.54,0,0,0-.8-2.06Zm-19.42,4.2a11.53,11.53,0,0,1,0-1.44V10a1.84,1.84,0,0,1,.21-.95l.15-.54A2.19,2.19,0,0,1,41,7.66l.23-.54.18-.37,4.29.73h0a1.08,1.08,0,0,1,.58.14,1.21,1.21,0,0,1,.42.42,1.17,1.17,0,0,1,0,1.09l-.28.54h0a3.77,3.77,0,0,0,.75,4.41,1.22,1.22,0,0,1,.23,1.37A3.61,3.61,0,0,0,47,17.1a3.77,3.77,0,0,0,3.64,3.84h2.22a1.11,1.11,0,0,1,.61.18,1.18,1.18,0,0,1,.42.49l.77,1.52-.46.13H53.7a11.94,11.94,0,0,1-1.78.26A11.61,11.61,0,0,1,40.31,11.91Zm16.9,10.32-.88-1.73h0A3.68,3.68,0,0,0,53,18.36H50.63A1.23,1.23,0,0,1,49.8,18a1.26,1.26,0,0,1-.36-.84,1,1,0,0,1,0-.49,3.65,3.65,0,0,0,.35-2.32,3.74,3.74,0,0,0-1.1-2.09,1.2,1.2,0,0,1-.33-.64,1.18,1.18,0,0,1,.1-.72l.29-.57h0a3.71,3.71,0,0,0,0-3.4,3.69,3.69,0,0,0-2.51-2L43.1,4.41A11.57,11.57,0,0,1,57.88,1.83a11.82,11.82,0,0,1,1.93,1.44,3.71,3.71,0,0,0-2.58,2.12,3.78,3.78,0,0,0,.36,3.69,1,1,0,0,1,.18.64,1.07,1.07,0,0,1-.18.9l-.13.24-.77,1.59h0A3.71,3.71,0,0,0,62,17.25l.44-.26a11.77,11.77,0,0,1-1.91,2.87,12.15,12.15,0,0,1-3.27,2.32Z"/></g></g></svg>